<?xml version="1.0" encoding="utf-8"?>
<!-- Generator: Adobe Illustrator 24.2.1, SVG Export Plug-In . SVG Version: 6.00 Build 0)  -->
<svg version="1.1" id="Layer_1" xmlns="http://www.w3.org/2000/svg" xmlns:xlink="http://www.w3.org/1999/xlink" x="0px" y="0px"
	 viewBox="0 0 175.7 42.5" style="enable-background:new 0 0 175.7 42.5;" xml:space="preserve">
<style type="text/css">
	.st0{fill:#FFFFFF;}
	.st1{fill:#FDD700;}
</style>
<g>
	<path class="st0" d="M22,23.6c0,1.1-0.3,2.2-0.8,3.1c-0.6,1-1.3,1.7-2.2,2.3c-0.9,0.6-2,0.9-3.1,0.9H9.2c-0.2,0-0.4,0.1-0.5,0.2
		c-0.2,0.1-0.3,0.3-0.3,0.5v2.4c0,0.2,0.1,0.4,0.3,0.5c0.2,0.1,0.3,0.2,0.5,0.2h6.6c0.7,0,1.3,0.2,1.8,0.7c0.5,0.5,0.8,1.1,0.8,1.9
		v1.5c0,0.7-0.3,1.3-0.8,1.8c-0.5,0.5-1.1,0.8-1.8,0.8H8c-1.7,0-3.2-0.6-4.4-1.8c-1.2-1.2-1.9-2.7-1.9-4.5V17.4
		c0-1.2,0.3-2.2,0.9-3.1c0.6-0.9,1.3-1.7,2.3-2.3c0.9-0.6,2-0.9,3.2-0.9h7.8c1.2,0,2.2,0.3,3.1,0.9c0.9,0.6,1.7,1.3,2.2,2.3
		c0.6,0.9,0.8,2,0.8,3.1V23.6z M15.4,22.4v-3.8c0-0.2-0.1-0.4-0.3-0.6c-0.2-0.1-0.3-0.2-0.5-0.2H9.2c-0.2,0-0.4,0.1-0.5,0.2
		c-0.2,0.2-0.3,0.3-0.3,0.6v3.8c0,0.2,0.1,0.3,0.3,0.5C8.8,23,9,23.1,9.2,23.1h5.5c0.2,0,0.4-0.1,0.5-0.2
		C15.3,22.7,15.4,22.6,15.4,22.4z"/>
	<path class="st0" d="M36.8,37.7c0,0.7-0.3,1.3-0.8,1.8s-1.1,0.8-1.8,0.8h-1.4c-1.7,0-3.2-0.6-4.4-1.8c-1.2-1.2-1.9-2.7-1.9-4.5V4.8
		c0-0.7,0.3-1.4,0.8-1.9c0.5-0.5,1.1-0.7,1.8-0.7h1.6c0.7,0,1.3,0.2,1.8,0.7c0.5,0.5,0.8,1.1,0.8,1.9v28.1c0,0.5,0.2,0.7,0.7,0.7
		h0.3c0.7,0,1.3,0.2,1.8,0.7c0.5,0.5,0.8,1.1,0.8,1.9V37.7z"/>
	<path class="st0" d="M61.6,23.6c0,1.1-0.3,2.2-0.8,3.1c-0.6,1-1.3,1.7-2.2,2.3c-0.9,0.6-2,0.9-3.1,0.9h-6.6c-0.2,0-0.4,0.1-0.5,0.2
		C48,30.2,48,30.4,48,30.5v2.4c0,0.2,0.1,0.4,0.3,0.5c0.2,0.1,0.3,0.2,0.5,0.2h6.6c0.7,0,1.3,0.2,1.8,0.7c0.5,0.5,0.8,1.1,0.8,1.9
		v1.5c0,0.7-0.3,1.3-0.8,1.8c-0.5,0.5-1.1,0.8-1.8,0.8h-7.8c-1.7,0-3.2-0.6-4.4-1.8c-1.2-1.2-1.9-2.7-1.9-4.5V17.4
		c0-1.2,0.3-2.2,0.9-3.1c0.6-0.9,1.3-1.7,2.3-2.3c0.9-0.6,2-0.9,3.2-0.9h7.8c1.2,0,2.2,0.3,3.1,0.9c0.9,0.6,1.7,1.3,2.2,2.3
		c0.6,0.9,0.8,2,0.8,3.1V23.6z M55,22.4v-3.8c0-0.2-0.1-0.4-0.3-0.6c-0.2-0.1-0.3-0.2-0.5-0.2h-5.5c-0.2,0-0.4,0.1-0.5,0.2
		C48,18.2,48,18.4,48,18.6v3.8c0,0.2,0.1,0.3,0.3,0.5c0.2,0.2,0.3,0.2,0.5,0.2h5.5c0.2,0,0.4-0.1,0.5-0.2C54.9,22.7,55,22.6,55,22.4
		z"/>
	<path class="st0" d="M86.5,34c0,1.8-0.6,3.3-1.8,4.5c-1.2,1.2-2.7,1.8-4.4,1.8h-7.8c-1.7,0-3.2-0.6-4.4-1.8
		c-1.2-1.2-1.9-2.7-1.9-4.5V17.4c0-1.2,0.3-2.2,0.9-3.2c0.6-1,1.3-1.7,2.3-2.3c0.9-0.6,2-0.8,3.2-0.8h7.8c1.2,0,2.2,0.3,3.1,0.8
		c0.9,0.6,1.7,1.3,2.2,2.3c0.6,1,0.8,2,0.8,3.2v2.9c0,0.7-0.2,1.3-0.7,1.8c-0.5,0.5-1.1,0.8-1.8,0.8h-1.6c-0.7,0-1.3-0.3-1.8-0.8
		c-0.5-0.5-0.7-1.1-0.7-1.8v-1.7c0-0.2-0.1-0.4-0.3-0.6c-0.2-0.1-0.3-0.2-0.5-0.2h-5.5c-0.2,0-0.4,0.1-0.5,0.2
		c-0.2,0.2-0.3,0.3-0.3,0.6v14.3c0,0.2,0.1,0.4,0.3,0.5c0.2,0.1,0.3,0.2,0.5,0.2h5.5c0.2,0,0.4-0.1,0.5-0.2c0.2-0.2,0.3-0.3,0.3-0.5
		v-1.7c0-0.7,0.2-1.3,0.7-1.8s1.1-0.8,1.8-0.8H84c0.7,0,1.3,0.3,1.8,0.8c0.5,0.5,0.7,1.1,0.7,1.8V34z"/>
	<path class="st0" d="M107.8,37.7c0,0.7-0.2,1.3-0.7,1.8c-0.5,0.5-1.1,0.8-1.8,0.8h-7.9c-1.7,0-3.2-0.6-4.4-1.8
		c-1.2-1.2-1.8-2.7-1.8-4.5V4.8c0-0.7,0.2-1.4,0.7-1.9c0.5-0.5,1.1-0.7,1.8-0.7h1.6c0.7,0,1.3,0.2,1.8,0.7c0.5,0.5,0.8,1.1,0.8,1.9
		v5.6c0,0.4,0.2,0.7,0.7,0.7h6.7c0.7,0,1.3,0.3,1.8,0.8c0.5,0.5,0.7,1.1,0.7,1.9v1.5c0,0.6-0.2,1.2-0.7,1.8
		c-0.6,0.5-1.2,0.7-1.8,0.7h-6.7c-0.5,0-0.7,0.3-0.7,0.8v14.3c0,0.5,0.2,0.7,0.7,0.7h6.7c0.7,0,1.3,0.2,1.8,0.7
		c0.5,0.5,0.7,1.1,0.7,1.9V37.7z"/>
	<path class="st0" d="M129,15.3c0,0.7-0.2,1.3-0.7,1.8c-0.5,0.5-1.1,0.7-1.8,0.7h-6.7c-0.5,0-0.7,0.3-0.7,0.8v19.1
		c0,0.7-0.3,1.3-0.8,1.8c-0.5,0.5-1.1,0.8-1.8,0.8h-1.6c-0.7,0-1.3-0.3-1.8-0.8c-0.5-0.5-0.7-1.1-0.7-1.8V17.4
		c0-1.2,0.3-2.2,0.8-3.2c0.6-1,1.3-1.7,2.2-2.3c0.9-0.6,2-0.8,3.2-0.8h7.9c0.7,0,1.3,0.3,1.8,0.8c0.5,0.5,0.7,1.1,0.7,1.9V15.3z"/>
	<path class="st0" d="M154,34c0,1.8-0.6,3.3-1.8,4.5c-1.2,1.2-2.7,1.8-4.4,1.8h-7.8c-1.7,0-3.2-0.6-4.4-1.8
		c-1.2-1.2-1.9-2.7-1.9-4.5V17.4c0-1.2,0.3-2.2,0.9-3.2c0.6-1,1.3-1.7,2.3-2.3c0.9-0.6,2-0.8,3.2-0.8h7.8c1.2,0,2.2,0.3,3.1,0.8
		c0.9,0.6,1.7,1.3,2.2,2.3c0.6,1,0.8,2,0.8,3.2V34z M147.3,32.9V18.6c0-0.2-0.1-0.4-0.3-0.6c-0.2-0.1-0.3-0.2-0.5-0.2h-5.5
		c-0.2,0-0.4,0.1-0.5,0.2c-0.2,0.2-0.3,0.3-0.3,0.6v14.3c0,0.2,0.1,0.4,0.3,0.5c0.2,0.1,0.3,0.2,0.5,0.2h5.5c0.2,0,0.4-0.1,0.5-0.2
		C147.2,33.3,147.3,33.1,147.3,32.9z"/>
	<path class="st1" d="M174.1,33.2c0,1.9-0.7,3.6-2.1,5c-1.4,1.4-3.1,2.1-5,2.1c-1.9,0-3.5-0.7-4.9-2.1c-1.4-1.4-2.1-3-2.1-5
		c0-1.9,0.7-3.6,2.1-5c1.4-1.4,3-2.1,4.9-2.1c1.9,0,3.6,0.7,5,2.1C173.4,29.6,174.1,31.3,174.1,33.2z"/>
</g>
</svg>
